<svg xmlns="http://www.w3.org/2000/svg" xmlns:xlink="http://www.w3.org/1999/xlink" width="26" height="24" viewBox="0 0 26 24"><defs><clipPath id="a"><rect width="26" height="24" transform="translate(490 3388)" fill="#fff" stroke="#707070" stroke-width="1"/></clipPath></defs><g transform="translate(-490 -3388)" clip-path="url(#a)"><path d="M20.643,0H3.543A3.547,3.547,0,0,0,0,3.543v17.1a3.547,3.547,0,0,0,3.543,3.543h7.133v-8.55H7.842V11.384h2.834V8.5a4.256,4.256,0,0,1,4.251-4.251h4.3V8.5h-4.3v2.882h4.3l-.709,4.251h-3.59v8.55h5.716a3.547,3.547,0,0,0,3.543-3.543V3.543A3.547,3.547,0,0,0,20.643,0Zm0,0" transform="translate(490.907 3388)" fill="#fff"/></g></svg>