<svg xmlns="http://www.w3.org/2000/svg" xmlns:xlink="http://www.w3.org/1999/xlink" width="26" height="24" viewBox="0 0 26 24"><defs><clipPath id="a"><rect width="26" height="24" transform="translate(666 3388)" fill="#fff" stroke="#707070" stroke-width="1"/></clipPath></defs><g transform="translate(-666 -3388)" clip-path="url(#a)"><g transform="translate(666.9 3388)"><path d="M15.9,9.73a6.158,6.158,0,1,0,6.158,6.158A6.157,6.157,0,0,0,15.9,9.73Zm0,10.155a4,4,0,1,1,4-4A4,4,0,0,1,15.9,19.885Z" transform="translate(-3.897 -3.893)" fill="#fff"/><path d="M16.948.076c-2.208-.1-7.677-.1-9.887,0A7.172,7.172,0,0,0,2.025,2.017C-.283,4.325.012,7.435.012,12c0,4.668-.26,7.706,2.013,9.979C4.342,24.291,7.5,23.988,12,23.988c4.624,0,6.22,0,7.855-.63,2.223-.863,3.9-2.85,4.065-6.419.1-2.209.1-7.677,0-9.887-.2-4.213-2.459-6.768-6.976-6.976Zm3.495,20.372c-1.513,1.513-3.612,1.378-8.468,1.378-5,0-7,.074-8.468-1.393-1.685-1.677-1.38-4.37-1.38-8.453,0-5.525-.567-9.5,4.978-9.788,1.274-.045,1.649-.06,4.856-.06l.045.03c5.329,0,9.51-.558,9.761,4.986.057,1.265.07,1.645.07,4.847,0,4.942.093,6.959-1.394,8.453Z" transform="translate(0 -0.001)" fill="#fff"/><circle cx="1.439" cy="1.439" r="1.439" transform="translate(16.967 4.155)" fill="#fff"/></g></g></svg>