<svg xmlns="http://www.w3.org/2000/svg" xmlns:xlink="http://www.w3.org/1999/xlink" width="1280" height="800" viewBox="0 0 1280 800"><defs><clipPath id="b"><rect width="1280" height="800"/></clipPath></defs><g id="a" clip-path="url(#b)"><rect width="1280" height="800" fill="#fff"/><rect width="1280" height="800" fill="#070326"/><rect width="478" height="800" fill="#282449"/><text transform="translate(84 70)" fill="#fff" font-size="39" font-family="Cornish"><tspan x="0" y="0">well</tspan><tspan x="0" y="71"></tspan></text><text transform="translate(126 114)" fill="#34bfff" font-size="27" font-family="Cornish"><tspan x="0" y="0">P</tspan><tspan y="0" fill="#fff">layed</tspan></text><text transform="translate(138 279)" fill="#fff" font-size="31" font-family="SegoeUI-Bold, Segoe UI" font-weight="700"><tspan x="0" y="0">New User</tspan></text><text transform="translate(138 320)" fill="#fff" font-size="31" font-family="SegoeUI-Bold, Segoe UI" font-weight="700"><tspan x="0" y="0">Registration</tspan></text><text transform="translate(138 422)" fill="#fff" font-size="20" font-family="SegoeUI, Segoe UI"><tspan x="0" y="0">LOG IN</tspan></text><text transform="translate(242 422)" fill="#fff" font-size="20" font-family="SegoeUI, Segoe UI"><tspan x="0" y="0">SIGN UP</tspan></text><path d="M0,0" transform="translate(242.5 452.5)" fill="none" stroke="#707070" stroke-width="1"/><line x2="77" transform="translate(133 433)" fill="none" stroke="#fff" stroke-width="1"/><rect width="189" height="48" transform="translate(528 243)" fill="#282449" opacity="0.46"/><rect width="189" height="48" transform="translate(528 313)" fill="#282449" opacity="0.46"/><rect width="61" height="36" transform="translate(529 450)" fill="#fff" opacity="0.46"/><text transform="translate(540 274)" fill="#fff" font-size="15" font-family="SegoeUI, Segoe UI"><tspan x="0" y="0">Email</tspan></text><text transform="translate(540 344)" fill="#fff" font-size="15" font-family="SegoeUI, Segoe UI"><tspan x="0" y="0">Password</tspan></text><g transform="translate(665.146 475.752) rotate(180)"><g transform="translate(101.48 0)"><path d="M104.392,7.379l5.519-5.519a.809.809,0,0,0,0-1.141l-.484-.483a.808.808,0,0,0-1.141,0l-6.571,6.571a.814.814,0,0,0,0,1.145l6.565,6.564a.808.808,0,0,0,1.141,0l.483-.483a.808.808,0,0,0,0-1.141Z" transform="translate(-101.48 0)" fill="#fff"/></g></g><g transform="translate(669.146 475.752) rotate(180)"><g transform="translate(101.48 0)"><path d="M104.392,7.379l5.519-5.519a.809.809,0,0,0,0-1.141l-.484-.483a.808.808,0,0,0-1.141,0l-6.571,6.571a.814.814,0,0,0,0,1.145l6.565,6.564a.808.808,0,0,0,1.141,0l.483-.483a.808.808,0,0,0,0-1.141Z" transform="translate(-101.48 0)" fill="#fff"/></g></g><text transform="translate(529 203)" fill="#fff" font-size="25" font-family="SegoeUI-Bold, Segoe UI" font-weight="700"><tspan x="0" y="0">LOG IN</tspan></text></g></svg>