<svg xmlns="http://www.w3.org/2000/svg" width="15.672" height="15" viewBox="0 0 15.672 15"><path d="M61.888,20.045l-4.094-.38L56.168,15.89a.328.328,0,0,0-.6,0L53.94,19.666l-4.094.38a.328.328,0,0,0-.186.573l3.089,2.713-.9,4.011a.328.328,0,0,0,.488.354l3.535-2.1L59.4,27.7a.328.328,0,0,0,.488-.354l-.9-4.011,3.089-2.713A.328.328,0,0,0,61.888,20.045Z" transform="translate(-48.031 -15.547)" fill="#17123b"/><g transform="translate(0 0)"><path d="M89.917,11.184c.209.29.8,1.535,1.134,2.26a.114.114,0,0,1-.182.131c-.581-.549-1.575-1.5-1.784-1.793a.512.512,0,0,1,.831-.6Z" transform="translate(-86.266 -10.971)" fill="#17123b"/><path d="M356.43,11.184c-.209.29-.8,1.535-1.134,2.26a.114.114,0,0,0,.181.131c.581-.549,1.575-1.5,1.784-1.793a.512.512,0,1,0-.831-.6Z" transform="translate(-344.41 -10.971)" fill="#17123b"/><path d="M417.272,283.115c-.34-.111-1.7-.294-2.5-.394a.114.114,0,0,0-.069.213c.7.387,1.91,1.044,2.25,1.154a.512.512,0,0,0,.317-.973Z" transform="translate(-401.954 -274.402)" fill="#17123b"/><path d="M.354,283.115c.34-.111,1.7-.294,2.5-.394a.114.114,0,0,1,.069.213c-.7.387-1.91,1.044-2.25,1.154a.512.512,0,0,1-.317-.973Z" transform="translate(0 -274.402)" fill="#17123b"/><path d="M239.794,402.292c0-.357.249-1.712.4-2.5a.114.114,0,0,1,.224,0c.151.786.4,2.14.4,2.5a.512.512,0,0,1-1.023,0Z" transform="translate(-232.454 -387.804)" fill="#17123b"/></g><path d="M56.76,17.263l-.591-1.373a.328.328,0,0,0-.6,0L53.94,19.666l-4.094.38a.328.328,0,0,0-.186.573l3.089,2.713-.9,4.011a.328.328,0,0,0,.488.354l.47-.279A25.467,25.467,0,0,1,56.76,17.263Z" transform="translate(-48.031 -15.547)" fill="#17123b"/></svg>