<svg xmlns="http://www.w3.org/2000/svg" xmlns:xlink="http://www.w3.org/1999/xlink" width="26" height="24" viewBox="0 0 26 24"><defs><clipPath id="a"><rect width="26" height="24" transform="translate(578 3388)" fill="#fff" stroke="#707070" stroke-width="1"/></clipPath></defs><g transform="translate(-578 -3388)" clip-path="url(#a)"><path d="M26,6.5a11.21,11.21,0,0,1-3.071.832,5.253,5.253,0,0,0,2.345-2.914A10.724,10.724,0,0,1,21.894,5.7,5.369,5.369,0,0,0,18,4.031,5.3,5.3,0,0,0,12.673,9.3a5.371,5.371,0,0,0,.123,1.2A15.143,15.143,0,0,1,1.81,4.992a5.235,5.235,0,0,0,1.638,7.046,5.309,5.309,0,0,1-2.408-.649v.058a5.311,5.311,0,0,0,4.27,5.18,5.376,5.376,0,0,1-1.4.174A4.764,4.764,0,0,1,2.9,16.71a5.374,5.374,0,0,0,4.981,3.672,10.786,10.786,0,0,1-6.609,2.248A10.092,10.092,0,0,1,0,22.558a15.127,15.127,0,0,0,8.177,2.366,14.979,14.979,0,0,0,15.171-15c0-.233-.008-.458-.02-.681A10.57,10.57,0,0,0,26,6.5Z" transform="translate(578 3385.483)" fill="#fff"/></g></svg>